M48
; DRILL file KiCad 10.0.6 date 2026-10-09T20:22:11
; FORMAT={-:-/ absolute / metric / decimal}
; #@! TF.CreationDate,2026-10-09T20:22:11+01:00
; #@! TF.GenerationSoftware,Kicad,Pcbnew,10.0.6
; #@! TF.FileFunction,Plated,1,2,PTH
FMAT,2
METRIC
; #@! TA.AperFunction,Plated,PTH,ComponentDrill
T1C0.700
; #@! TA.AperFunction,Plated,PTH,ComponentDrill
T2C0.800
; #@! TA.AperFunction,Plated,PTH,ComponentDrill
T3C0.889
; #@! TA.AperFunction,Plated,PTH,ComponentDrill
T4C1.000
; #@! TA.AperFunction,Plated,PTH,ComponentDrill
T5C1.500
%
G90
G05
T1
X187.88Y-28.8
X195.5Y-28.8
T2
X186.215Y-34.8
X188.755Y-34.8
X191.295Y-34.8
X193.835Y-34.8
T3
X208.835Y-46.3
X208.835Y-48.84
X208.835Y-51.38
X208.835Y-53.92
X208.835Y-56.46
X208.835Y-59.0
X208.835Y-61.54
X224.075Y-46.3
X224.075Y-48.84
X224.075Y-51.38
X224.075Y-53.92
X224.075Y-56.46
X224.075Y-59.0
X224.075Y-61.54
T4
X186.849Y-66.049
X189.389Y-66.049
X191.929Y-66.049
X194.469Y-66.049
X204.835Y-71.3
X204.835Y-73.84
X204.835Y-76.38
X204.835Y-78.92
X204.835Y-81.46
X204.835Y-84.0
X204.835Y-86.54
X204.835Y-89.08
T5
X159.15Y-71.54
X160.985Y-46.34
X165.5Y-69.0
X167.335Y-43.8
M30
